<?xml version="1.0" standalone="no"?>
<!DOCTYPE svg PUBLIC "-//W3C//DTD SVG 20010904//EN"
 "http://www.w3.org/TR/2001/REC-SVG-20010904/DTD/svg10.dtd">
<svg version="1.0" xmlns="http://www.w3.org/2000/svg"
 width="512.000000pt" height="512.000000pt" viewBox="0 0 512.000000 512.000000"
 preserveAspectRatio="xMidYMid meet">
<metadata>
Created by potrace 1.11, written by Peter Selinger 2001-2013
</metadata>
<g transform="translate(0.000000,512.000000) scale(0.100000,-0.100000)"
fill="#000000" stroke="none">
<path d="M1920 2771 l0 -1919 -212 2 -213 1 0 182 0 183 -35 -6 c-64 -12 -267
-73 -332 -100 -171 -71 -272 -168 -270 -260 1 -129 155 -241 447 -326 55 -16
116 -31 135 -34 19 -3 37 -7 40 -9 3 -2 26 -6 50 -9 25 -4 56 -9 70 -11 41 -7
102 -15 150 -19 25 -2 74 -7 110 -11 134 -13 567 -8 656 9 11 2 44 7 74 10 58
7 68 8 165 25 73 13 134 28 235 55 102 29 260 102 320 150 261 208 8 442 -590
545 -118 20 -160 26 -290 37 -41 3 -77 8 -79 9 -4 5 -4 1925 1 1929 1 2 156
81 343 176 730 370 910 463 918 470 5 4 -42 33 -105 63 -62 30 -266 130 -453
222 -187 92 -437 214 -555 272 -118 58 -296 145 -394 194 -99 49 -181 89 -183
89 -2 0 -3 -864 -3 -1919z"/>
<path d="M4075 1265 c-139 -42 -228 -157 -230 -300 -1 -77 7 -108 46 -175 54
-90 146 -142 259 -146 132 -4 237 57 295 172 26 51 30 70 30 140 0 45 -5 92
-11 105 -6 13 -17 37 -25 52 -22 47 -87 107 -144 133 -63 29 -160 38 -220 19z"/>
</g>
</svg>
